<svg xmlns="http://www.w3.org/2000/svg" xmlns:xlink="http://www.w3.org/1999/xlink" viewBox="0 0 710.63379 56.38086"><defs><linearGradient id="linear-gradient" y1="28.19067" x2="10.94482" y2="28.19067" gradientUnits="userSpaceOnUse"><stop offset="0" stop-color="#d2a2f2"/><stop offset="0.10643" stop-color="#c1b3f2"/><stop offset="0.11257" stop-color="#beb5f2"/><stop offset="0.1587" stop-color="#adbdf2"/><stop offset="0.2159" stop-color="#a2c3f2"/><stop offset="0.29645" stop-color="#9bc7f2"/><stop offset="0.52008" stop-color="#99c8f2"/><stop offset="0.79719" stop-color="#94e1f2"/><stop offset="1" stop-color="#91f2f2"/></linearGradient><linearGradient id="linear-gradient-2" x1="23.4707" y1="28.19067" x2="61.92236" y2="28.19067" xlink:href="#linear-gradient"/><linearGradient id="linear-gradient-3" x1="68.97461" y1="28.19067" x2="106.56152" y2="28.19067" xlink:href="#linear-gradient"/><linearGradient id="linear-gradient-4" x1="113.61377" y1="28.19067" x2="148.24902" y2="28.19067" xlink:href="#linear-gradient"/><linearGradient id="linear-gradient-5" x1="157.10059" y1="28.19067" x2="194.11182" y2="28.19067" xlink:href="#linear-gradient"/><linearGradient id="linear-gradient-6" x1="195.98047" y1="28.19067" x2="240.76855" y2="28.19067" xlink:href="#linear-gradient"/><linearGradient id="linear-gradient-7" x1="244.5083" y1="28.19043" x2="283.24756" y2="28.19043" xlink:href="#linear-gradient"/><linearGradient id="linear-gradient-8" x1="286.98828" y1="28.19067" x2="324.5752" y2="28.19067" xlink:href="#linear-gradient"/><linearGradient id="linear-gradient-9" x1="332.41992" y1="28.19067" x2="343.36475" y2="28.19067" xlink:href="#linear-gradient"/><linearGradient id="linear-gradient-10" x1="353.65869" y1="28.19043" x2="393.47803" y2="28.19043" xlink:href="#linear-gradient"/><linearGradient id="linear-gradient-11" x1="403.19434" y1="28.19067" x2="441.64551" y2="28.19067" xlink:href="#linear-gradient"/><linearGradient id="linear-gradient-12" x1="470.72949" y1="28.19067" x2="507.59668" y2="28.19067" xlink:href="#linear-gradient"/><linearGradient id="linear-gradient-13" x1="517.09766" y1="28.19067" x2="551.73242" y2="28.19067" xlink:href="#linear-gradient"/><linearGradient id="linear-gradient-14" x1="557.56055" y1="28.15454" x2="591.4043" y2="28.15454" xlink:href="#linear-gradient"/><linearGradient id="linear-gradient-15" x1="600.97559" y1="28.19067" x2="611.9209" y2="28.19067" xlink:href="#linear-gradient"/><linearGradient id="linear-gradient-16" x1="622.21484" y1="28.19043" x2="661.09863" y2="28.19043" xlink:href="#linear-gradient"/><linearGradient id="linear-gradient-17" x1="672.18262" y1="28.19067" x2="710.63379" y2="28.19067" xlink:href="#linear-gradient"/></defs><g id="Layer_2" data-name="Layer 2"><g id="Layer_1-2" data-name="Layer 1"><path d="M0,1.29639H10.94482V55.085H0Z" style="fill:url(#linear-gradient)"/><path d="M23.4707,55.085V1.29639H34.77588L51.76953,35.93115V1.29639H61.92236V55.085h-9.937L33.624,18.21777V55.085Z" style="fill:url(#linear-gradient-2)"/><path d="M68.97461,10.65723V1.29639h37.58691v9.36084H93.16846V55.085H82.22363V10.65723Z" style="fill:url(#linear-gradient-3)"/><path d="M113.61377,55.085V1.29639h34.13135v9.36084h-23.186V22.82617h17.9292V32.187h-17.9292V45.72412H148.249V55.085Z" style="fill:url(#linear-gradient-4)"/><path d="M157.10059,55.085V1.29639h17.13769c11.80908,0,18.14551,4.89648,18.14551,15.3374,0,9.00049-6.26465,12.96094-9.36084,14.61719l11.08887,23.834H182.231L172.582,33.19482H168.0459V55.085Zm12.60107-30.17041c4.39258,0,10.87305-.72021,10.87305-8.13672,0-5.25683-2.80811-7.561-9.36084-7.561h-3.168V24.91455Z" style="fill:url(#linear-gradient-5)"/><path d="M195.98047,55.085,211.606,1.29639h13.82519L240.76855,55.085H229.82373L226.43945,42.916H209.15771L205.77344,55.085Zm28.15478-20.08984-6.48046-22.82569-6.33692,22.82569Z" style="fill:url(#linear-gradient-6)"/><path d="M256.31738,34.7793c0,8.20849,2.3042,11.44873,8.28076,11.44873,3.0962,0,7.77637-1.94385,7.77637-7.63233a19.39586,19.39586,0,0,0-.144-2.44824h10.873a26.991,26.991,0,0,1,.144,3.02393c0,11.59326-7.99268,17.20947-19.80176,17.20947-13.105,0-18.9375-7.27246-18.9375-27.146C244.5083,13.17725,245.73242,0,264.958,0c13.105,0,16.99365,9.28906,16.99365,16.20166a32.40544,32.40544,0,0,1-.21631,4.39209h-10.585a27.21079,27.21079,0,0,0,.28809-3.81592c0-4.53662-2.16016-7.9209-7.20069-7.9209-6.48047,0-7.92041,4.03223-7.92041,11.521Z" style="fill:url(#linear-gradient-7)"/><path d="M286.98828,10.65723V1.29639H324.5752v9.36084H311.18213V55.085H300.2373V10.65723Z" style="fill:url(#linear-gradient-8)"/><path d="M332.41992,1.29639h10.94483V55.085H332.41992Z" style="fill:url(#linear-gradient-9)"/><path d="M353.65869,27.79443C353.65869,11.88135,357.835,0,373.38818,0,390.7417,0,393.478,13.68115,393.478,28.22656c0,14.76123-3.09619,28.1543-20.08985,28.1543C356.03467,56.38086,353.65869,41.25977,353.65869,27.79443Zm11.80908-1.36816c0,13.96924,2.59229,20.23389,8.06446,20.23389,4.8247,0,8.13672-4.53614,8.13672-16.6333,0-14.32911-2.0879-20.30567-8.06446-20.30567C368.77979,9.72119,365.46777,14.32959,365.46777,26.42627Z" style="fill:url(#linear-gradient-10)"/><path d="M403.19434,55.085V1.29639H414.5l16.99316,34.63476V1.29639h10.15235V55.085H431.709L413.34766,18.21777V55.085Z" style="fill:url(#linear-gradient-11)"/><path d="M470.72949,55.085V1.29639h14.3291c18.4336,0,22.53809,15.48144,22.53809,26.57031,0,15.91309-5.18457,27.21826-24.48145,27.21826Zm13.17774-8.78467c7.77636,0,11.88086-4.32031,11.88086-16.48974,0-13.46485-2.52051-19.7295-12.09766-19.7295H481.6748V46.30029Z" style="fill:url(#linear-gradient-12)"/><path d="M517.09766,55.085V1.29639h34.13086v9.36084H528.043V22.82617h17.92969V32.187H528.043V45.72412h23.68945V55.085Z" style="fill:url(#linear-gradient-13)"/><path d="M557.77734,38.09131h9.28809a23.80147,23.80147,0,0,0-.21582,2.95264c0,4.39209,3.09668,6.04834,6.76855,6.04834,5.40039,0,6.91309-3.0962,6.91309-6.48047,0-4.17627-4.03223-6.55274-8.56934-8.49707-3.02441-1.2959-14.18457-4.6084-14.18457-16.48926C557.77734,5.90479,563.10547,0,575.34668,0c10.00879,0,14.25684,4.39258,14.25684,14.11328a36.30467,36.30467,0,0,1-.28809,4.10449h-9.50488a26.95191,26.95191,0,0,0,.28808-3.45654c0-2.16016-.57617-5.54443-5.76074-5.54443-4.24805,0-5.68848,2.16015-5.68848,4.96875,0,4.03222,2.377,5.97656,8.42481,8.4248,6.625,2.66406,14.33008,5.97608,14.33008,17.56934,0,9.64892-5.041,16.12939-17.71387,16.12939-10.585,0-16.12988-4.68066-16.12988-14.54541C557.56055,40.17969,557.77734,38.09131,557.77734,38.09131Z" style="fill:url(#linear-gradient-14)"/><path d="M600.97559,1.29639H611.9209V55.085H600.97559Z" style="fill:url(#linear-gradient-15)"/><path d="M654.69043,52.27686c-3.67285,2.95214-8.13672,4.104-13.32129,4.104-6.98437,0-19.1543-1.51172-19.1543-24.69775V25.85059C622.21484,2.80859,633.376,0,643.09668,0c7.27344,0,16.63379,4.03271,16.63379,15.8418a9.88941,9.88941,0,0,1-.28809,2.08789H648.71387a18.39477,18.39477,0,0,0,.14355-2.08789c0-4.46485-3.24023-6.98487-7.27246-6.98487-4.6084,0-7.48828,3.3125-7.48828,9.001V34.99512c0,8.28076,2.16016,12.52929,7.84863,12.52929,5.54395,0,8.4961-3.38427,8.4961-8.56884V36.14746h-8.35254v-7.9209h19.00976v28.1543h-4.6084Z" style="fill:url(#linear-gradient-16)"/><path d="M672.18262,55.085V1.29639h11.30566l16.99317,34.63476V1.29639h10.15234V55.085h-9.93652L682.33594,18.21777V55.085Z" style="fill:url(#linear-gradient-17)"/></g></g></svg>