<svg xmlns="http://www.w3.org/2000/svg" viewBox="0 0 889.9347 936.15461"><g id="Layer_2" data-name="Layer 2"><g id="Layer_1-2" data-name="Layer 1"><path d="M42.91077.25183S7.68736,108.17736.41077,150.43268c0,0,21.44681,14.42553,67.65957,23.80851,0,0,80.78724-162.44681,96.15958-173.48936" style="fill:none;stroke:#000;stroke-miterlimit:10;stroke-width:0.75px"/><path d="M144.79375.75183s-14.65167,51.00061-16.94286,58.2769" style="fill:none;stroke:#000;stroke-miterlimit:10;stroke-width:0.75px"/><path d="M68.07034,174.24119s-4.85106,11.29787-10.78723,24.766c0,0,62.06383,38.53191,136.78723,36.65957,0,0,12-.97872,18.80851-.25532,41.18014,4.37539,105.95745,34.6383,142.89362,34.80851,0,0,23.91489-28.89361,36.51064-34.55319,23.78079-10.68528,82.89361,27.10638,121.82978,29.14894,0,0,23.02128-9.9149,31.2766-17.68085,50.93617-3.25532,77.87234-10.53192,141.44681-38.87234,0,0,93.95745-52.59575,12.25532,20.04255,0,0,43.41533,17.86139,78.6383-9.74468,8.55467-6.70474,141.87234-109.19149,42.34042-9.87234,0,0,36.29787-18.12766,69.48936-65.2766,0,0-8.17021-33.3617-67.14893-143.234" style="fill:none;stroke:#000;stroke-linejoin:round;stroke-width:0.75px"/><path d="M194.07034,235.66672c4.08511-88,57.70213-234.91489,57.70213-234.91489S219.94268,140.00715,212.87885,235.4114" style="fill:none;stroke:#000;stroke-linejoin:round;stroke-width:0.75px"/><path d="M339.28311.75183s1,202.74468,16.48936,269.46808" style="fill:none;stroke:#000;stroke-linejoin:round;stroke-width:0.75px"/><path d="M350.198.75183s4.383,162.234,42.08511,234.91489" style="fill:none;stroke:#000;stroke-linejoin:round;stroke-width:0.75px"/><path d="M514.11289,264.81566C535.77247,144.688,516.964.75183,516.964.75183s25.53191,236.234,28.42553,246.383" style="fill:none;stroke:#000;stroke-linejoin:round;stroke-width:0.75px"/><path d="M652.79375.75183s81.42877,161.41456,79.52289,190.24983" style="fill:none;stroke:#000;stroke-linejoin:round;stroke-width:0.75px"/><path d="M728.70864.75183s99.43522,100.56689,127.84527,165.10259" style="fill:none;stroke:#000;stroke-linejoin:round;stroke-width:0.75px"/><path d="M424.59871,237.67185c6.578,9.90977,3.08927,54.24955,2.3227,81.65445-.51064,18.25532,14.42553,82.46808-8.42554,101.87234-178.97872-72.51064-296.0851,44.76595-296.0851,44.76595-2.31915,0-7.70213-4.68085-15.21126-23.79806C70.76841,365.6838,79.16482,210.3311,79.16482,210.3311" style="fill:none;stroke:#000;stroke-linejoin:round;stroke-width:0.75px"/><path d="M418.49587,421.19864s3.75532,3.51063,2.85107,11.13829c-168.17022-74.21276-297.36171,43.75532-297.36171,43.75532-3.06382-3.10638-1.57446-10.12766-1.57446-10.12766" style="fill:none;stroke:#000;stroke-linejoin:round;stroke-width:0.75px"/><path d="M421.34694,432.33693a37.708,37.708,0,0,0,1.48936,9.82979,26.48284,26.48284,0,0,1,.87143,5.86256c.19767,5.10188.67315,15.00667,1.42644,16.4034-226.97872-38.29787-294.7234,75.91489-294.7234,75.91489-2.89362-10.7234-9.36171-45.19149-6.42554-64.25532" style="fill:none;stroke:#000;stroke-linejoin:round;stroke-width:0.75px"/><path d="M130.41077,540.34757s.72925,40.26536,1.10638,49.87234c8.93617,145.02128,56.25532,172.93617,66.12766,247.33854" style="fill:none;stroke:#000;stroke-linejoin:round;stroke-width:0.75px"/><path d="M131.46957,588.90237c-16.71838,73.82818-3.0588,154.16861,61.79226,260.892,0,0,24.89362,54.6383,53.06383,69.2766,0,0,73.60494,39.11042,132.43475-2.3423a91.98575,91.98575,0,0,0,34.81509-48.8393c13.91935-46.226,26.96293-120.56308,28.40973-152.8184,0,0,12.85107-85.53192-16.85106-250.6383" style="fill:none;stroke:#000;stroke-linejoin:round;stroke-width:0.75px"/><path d="M468.29058,253.178s-3.45615,10.09344-.3975,42.3538a33.42386,33.42386,0,0,1-.17036,7.83311c-2.813,19.91323-14.19987,110.28435,9.41145,119.36563,0,0-2.34042,5.10638-.617,9.89362-5.04255,15.51064-6.44681,28.02128-5.80851,46.27659-7.2766,56.42554-41.234,130.04256-12.12766,300.93617,10.97872,67.48937,4.25532,144.68086,110.29787,154.29788,31.48936,1.6448,78.6383.38682,126.46809-106.97873,33.02127-62.29787,67.57447-200.68085,67.74468-283.82978,3.98014-10.69664,6.66766-21.9588,6.17343-45.82964a8.9028,8.9028,0,0,1,.61027-3.38281,19.14226,19.14226,0,0,0,.70566-11.63862c-94.21277-123.82978-266.12766-80.42553-293.44681-59.74468" style="fill:none;stroke:#000;stroke-linejoin:round;stroke-width:0.75px"/><path d="M470.70864,478.90076c33.06383-29.3617,232.21277-60.76595,292.383,64.42554" style="fill:none;stroke:#000;stroke-linejoin:round;stroke-width:0.75px"/><path d="M476.51715,432.62417C506.964,402.688,686.303,373.55014,769.54839,495.16162" style="fill:none;stroke:#000;stroke-linejoin:round;stroke-width:0.75px"/><path d="M770.1628,481.92773c7.22669,3.95176,57.43946-108.89931,41.11808-288.55419" style="fill:none;stroke:#000;stroke-linejoin:round;stroke-width:0.75px"/></g></g></svg>