<svg xmlns="http://www.w3.org/2000/svg" viewBox="0 0 591.65957 620"><g id="Layer_2" data-name="Layer 2"><g id="Layer_1-2" data-name="Layer 1"><polygon points="567.245 164.724 295.979 571.234 30.903 168.456 295.106 114 567.245 164.724" style="fill:#716f6c"/><polygon points="192.106 1 65.606 13 295.106 114 192.106 1" style="fill:#a9aaa7"/><polygon points="400.255 0 295.106 114 526.106 12.468 400.255 0" style="fill:#c5c4c2"/><polygon points="591.66 80.34 526.106 12.468 589.5 181.713 591.66 80.34" style="fill:#abaca9"/><polygon points="526.106 12.468 295.106 114 526.511 176.936 526.106 12.468" style="fill:#8e8c89"/><polygon points="526.106 12.468 526.511 176.936 589.5 181.713 526.106 12.468" style="fill:#c6c4c2"/><polygon points="589.5 181.713 526.511 176.936 539.702 306.809 589.5 181.713" style="fill:#8e8c89"/><polygon points="65.606 13 64.72 177.179 295.106 114 65.606 13" style="fill:#716f6c"/><polygon points="0 80.383 1.404 181.713 65.606 13 0 80.383" style="fill:#a9aaa7"/><polygon points="1.404 181.713 51.872 309.617 64.72 177.179 1.404 181.713" style="fill:#716f6b"/><polygon points="51.872 309.617 164.128 370.638 64.72 177.179 51.872 309.617" style="fill:#8e8c89"/><polygon points="65.606 13 1.404 181.713 64.72 177.179 65.606 13" style="fill:#c6c4c2"/><polygon points="526.511 176.936 426.255 371.83 539.702 306.809 526.511 176.936" style="fill:#716f6c"/><polygon points="539.702 306.809 295.979 571.234 430.33 369.494 539.702 306.809" style="fill:#a9aaa7"/><polygon points="12.638 325.872 138.475 396.851 286.851 620 12.638 325.872" style="fill:#a9a9a7"/><path d="M426.25532,371.82979l-11.18622-8.86455a5.40668,5.40668,0,0,1-2.03092-4.707c2.65873-30.97754-11.2935-127.19437-83.80414-120.72629-70.92214,6.32639-34.6383,57.36171-34.6383,57.36171s-34.67.0665-34.80851-32.85107c-.13933-33.10638,54.29788-94.63829,148.08511-37.78723,0,0,12.6383,8.17021,30.25532-1.2766s88.383-46.04255,88.383-46.04255Z" style="fill:#c7c7c7"/><path d="M294.59574,294.89362s39.48937-11.9149,38.21277,28.93617-50.55319,101.3617-145.02128,44.68085c0,0-8.17021-7.14894-22.46808,3.31915L295.97872,571.234v-136.766s69.68085-36.59575,73.42554-94.12766-38.28724-66.11181-43.07447-66.08519C321.09583,274.28434,307.2766,271.234,294.59574,294.89362Z" style="fill:#8e8c89"/><path d="M64.72034,177.17914,295.10638,114l.236,38.38187a4.4841,4.4841,0,0,1-2.85425,4.20847c-53.45531,20.85975-102.22671,104.97971-56.44554,145.282,41.95745,36.93617,58.55319-6.97872,58.55319-6.97872s14.12766,39.89361-30.04255,45.78723c-44.76177,5.97255-89.44681-58.80851-91.82924-97.2866.03518-.25358-1.14948-14.16021-18.7665-20.79851C133.27843,214.80365,64.72034,177.17914,64.72034,177.17914Z" style="fill:#8e8c89"/></g></g></svg>